<svg width="960" height="960" viewBox="0 0 960 960" fill="none" xmlns="http://www.w3.org/2000/svg">
<g clip-path="url(#clip0_46_7745)">
<g clip-path="url(#clip1_46_7745)">
<path fill-rule="evenodd" clip-rule="evenodd" d="M709.929 622.849C717.551 671.5 719.645 720.972 710.415 768.986L712.194 769.322C713.834 768.164 715.468 766.98 717.094 765.788C762.859 732.056 799.006 686.94 821.946 634.92C845.476 581.298 854.476 522.905 846.96 464.839C812.985 481.527 782.64 506.355 758.385 536.139C737.332 561.865 721.145 591.213 710.618 622.744L709.929 622.849ZM840.304 518.066C840.38 517.301 839.821 516.619 839.056 516.543C838.29 516.467 837.608 517.026 837.533 517.791C830.017 593.693 798.172 665.133 746.746 721.461C746.228 722.029 746.268 722.91 746.836 723.428C747.403 723.947 748.284 723.907 748.803 723.339C800.634 666.567 832.729 594.565 840.304 518.066Z" fill="#171717"/>
<path fill-rule="evenodd" clip-rule="evenodd" d="M678.147 486.265C686.021 515.264 693.897 544.267 700.458 573.581C704.106 589.85 707.339 606.306 709.926 622.849L710.615 622.744C721.143 591.212 737.329 561.864 758.382 536.139L757.791 535.662C775.404 491.701 774.388 439.029 754.744 395.929L754.576 396.009C719.361 414.281 691.369 443.493 676.53 480.281H676.522C677.064 482.276 677.605 484.27 678.147 486.265ZM756.078 416.217C755.855 415.481 755.077 415.065 754.341 415.288C753.605 415.511 753.189 416.289 753.412 417.025C762.936 448.453 762.989 481.991 753.566 513.45C753.346 514.186 753.764 514.962 754.501 515.183C755.237 515.404 756.013 514.985 756.234 514.249C765.814 482.266 765.76 448.169 756.078 416.217Z" fill="url(#paint0_linear_46_7745)"/>
<path fill-rule="evenodd" clip-rule="evenodd" d="M671.444 681.252C677.433 665.705 671.303 652.209 658.566 642.838C648.841 635.692 640.591 634.173 628.95 637.389C620.62 639.696 612.822 643.009 606.674 649.289C597.709 658.461 593.646 672.335 596.852 684.761C600.058 697.187 610.658 707.538 623.279 709.861C633.746 711.787 644.681 708.377 653.557 702.494C661.401 697.301 668.061 690.031 671.444 681.252ZM645.001 644.697C644.248 644.543 643.512 645.029 643.358 645.782C643.203 646.535 643.689 647.271 644.442 647.426C650.407 648.648 655.651 652.168 659.041 657.227C662.43 662.285 663.692 668.474 662.554 674.455C662.41 675.211 662.906 675.94 663.661 676.084C664.417 676.227 665.146 675.731 665.29 674.976C666.565 668.276 665.151 661.342 661.354 655.676C657.558 650.01 651.683 646.066 645.001 644.697Z" fill="url(#paint1_linear_46_7745)"/>
<path fill-rule="evenodd" clip-rule="evenodd" d="M222.47 760.833L222.434 760.657L222.433 760.656C223.843 760.295 225.319 760.272 226.74 760.59C228.16 760.908 229.486 761.557 230.608 762.484C231.73 763.412 232.617 764.591 233.196 765.927C233.776 767.262 234.031 768.716 233.942 770.169C233.928 770.394 233.907 770.626 233.886 770.86C233.768 772.203 233.642 773.633 234.605 774.506C235.334 775.029 236.216 775.296 237.113 775.265C247.769 776.004 258.427 776.749 269.087 777.5C271.128 777.64 273.478 777.668 274.838 776.14C275.41 775.385 275.719 774.464 275.719 773.517C275.719 772.569 275.41 771.648 274.838 770.893C273.651 769.401 272.001 768.348 270.148 767.899C269.283 767.637 268.399 767.442 267.514 767.247C266.55 767.034 265.587 766.821 264.648 766.522C259.074 764.737 254.843 759.969 252.485 754.607C250.127 749.245 249.403 743.327 248.961 737.498L248.952 737.162C236.639 737.309 224.327 736.766 212.075 735.536L212.058 735.757C211.367 746.739 210.672 757.724 209.973 768.712C209.858 769.593 209.921 770.488 210.159 771.344C210.41 771.937 210.788 772.468 211.265 772.9C211.743 773.331 212.309 773.654 212.924 773.844C214.156 774.218 215.436 774.409 216.724 774.409C218.366 774.489 220.336 774.396 221.184 772.996C221.501 772.363 221.667 771.664 221.67 770.956L222.47 760.833ZM242.799 743.772C242.839 743.004 242.248 742.349 241.48 742.31C240.712 742.27 240.057 742.86 240.018 743.628C239.806 747.691 240.578 751.746 242.268 755.447C243.957 759.149 246.515 762.388 249.723 764.891C250.329 765.364 251.204 765.256 251.677 764.65C252.15 764.043 252.042 763.168 251.436 762.695C248.581 760.468 246.305 757.585 244.801 754.291C243.298 750.997 242.611 747.389 242.799 743.772Z" fill="url(#paint2_linear_46_7745)"/>
<path fill-rule="evenodd" clip-rule="evenodd" d="M107.292 749.219C108.761 745.613 110.224 742.003 111.681 738.39C113.704 739.235 115.853 739.739 118.04 739.88C117.733 743.596 117.878 747.336 118.473 751.018C119.086 754.731 121.029 758.094 123.94 760.478C126.612 762.488 129.948 763.205 133.248 763.914C133.995 764.074 134.74 764.234 135.475 764.409C137.981 765.003 140.474 765.793 142.965 766.583C148.992 768.494 155.007 770.401 161.17 769.514C159.607 767.238 157.384 765.568 155.158 763.895C153.107 762.354 151.053 760.811 149.511 758.791C145.978 754.156 145.748 747.664 147.462 742.091C149.176 736.518 152.603 731.659 155.976 726.908L156.056 726.528C142.092 723.542 128.216 720.142 114.437 716.591L114.384 716.785C109.968 725.271 105.551 733.753 101.135 742.232C100.816 742.775 100.584 743.366 100.446 743.981C100.38 744.788 100.554 745.596 100.945 746.305C101.337 747.013 101.928 747.591 102.646 747.965C104.096 748.688 105.676 749.114 107.292 749.219ZM145.143 731.664C145.684 731.116 145.678 730.235 145.13 729.694C144.583 729.154 143.701 729.16 143.161 729.707C139.878 733.035 137.602 737.222 136.596 741.787C135.59 746.352 135.895 751.108 137.476 755.508C137.736 756.231 138.533 756.607 139.257 756.347C139.981 756.087 140.357 755.289 140.097 754.566C138.693 750.661 138.422 746.439 139.315 742.386C140.208 738.334 142.229 734.617 145.143 731.664Z" fill="url(#paint3_linear_46_7745)"/>
<path fill-rule="evenodd" clip-rule="evenodd" d="M285.025 730.581C288.089 726.527 287.374 720.874 286.508 715.866C280.57 681.47 274.445 647.103 268.134 612.766C262.861 584.069 257.456 555.389 251.918 526.727C249.942 516.517 247.952 506.307 245.947 496.095L245.691 495.159C234.968 498.075 224.201 500.812 213.31 502.994C192.791 507.111 171.646 509.266 150.898 506.43C147.965 506.042 145.055 505.496 142.18 504.796L142.048 505.296C142.717 511.17 143.196 517.052 143.487 522.944C144.091 534.808 143.953 546.698 143.072 558.544C140.532 592.838 131.932 626.409 117.672 657.7C111.946 670.276 105.317 682.421 97.8369 694.04L97.7997 694.098C96.1566 696.661 94.4242 699.363 94.3369 702.396C94.1239 709.718 102.781 713.561 109.865 715.407C111.383 715.804 112.912 716.201 114.44 716.59C128.218 720.142 142.095 723.541 156.059 726.527C174.546 730.586 193.248 733.593 212.076 735.536C224.328 736.766 236.639 737.309 248.952 737.162C251.189 737.138 253.43 737.082 255.674 736.994C260.985 736.806 266.3 736.455 271.617 735.943C276.554 735.466 282.031 734.538 285.025 730.581ZM237.962 502.335C237.801 501.583 237.06 501.104 236.308 501.265C235.556 501.427 235.078 502.167 235.239 502.919C250.213 572.647 263.118 642.778 273.952 713.311C274.069 714.071 274.78 714.593 275.54 714.476C276.3 714.36 276.822 713.649 276.705 712.888C265.862 642.301 252.948 572.116 237.962 502.335Z" fill="#171717"/>
<path fill-rule="evenodd" clip-rule="evenodd" d="M161.984 335.952C173.397 333.983 183.991 328.737 192.475 320.852C198.657 326.963 199.346 336.918 197.344 345.418C196.271 349.944 194.569 354.283 192.867 358.625C191.333 362.537 189.799 366.451 188.723 370.503C186.874 377.446 186.639 385.351 189.774 391.613V391.622C190.501 393.09 191.422 394.454 192.512 395.677L192.919 396.322C193.343 396.446 193.766 396.558 194.19 396.658C197.289 397.4 200.495 397.586 203.659 397.206C208.464 396.614 213.037 394.802 216.944 391.942C221.429 388.682 224.901 384.22 226.96 379.072C232.348 365.585 225.98 348.52 213.075 341.852C217.827 341.604 221.547 336.914 221.758 332.162C221.969 327.41 219.32 322.889 215.778 319.717C212.236 316.545 207.855 314.496 203.536 312.482C203.465 310.539 203.386 308.587 203.307 306.644L207.052 306.844L230.326 265.286L120.8 298.117L134.726 325.556L151.552 319.735C151.973 322.022 152.391 324.31 152.807 326.598L153.425 327.216C153.3 327.771 153.178 328.329 153.056 328.886C152.935 329.438 152.815 329.99 152.692 330.537C148.726 331.191 145.025 332.952 142.015 335.617C139.006 338.282 136.811 341.743 135.682 345.602C134.553 349.46 134.538 353.558 135.636 357.425C136.735 361.292 138.903 364.77 141.892 367.458C134.56 371.618 131.752 381.829 135.241 389.505C138.058 395.696 144.364 399.866 151.113 400.846C152.718 401.088 154.346 401.135 155.962 400.987C158.354 400.777 160.684 400.108 162.824 399.017C165.175 397.878 167.163 396.108 168.566 393.903C168.934 393.302 169.246 392.669 169.501 392.012C169.837 391.129 170.074 390.211 170.208 389.275C170.676 386.138 170.137 382.826 169.59 379.655C167.075 365.166 164.555 350.675 162.029 336.181L161.984 335.952ZM212.707 326.513C212.158 325.975 211.277 325.984 210.738 326.533C210.2 327.082 210.209 327.964 210.758 328.502C211.715 329.44 212.427 330.597 212.832 331.874C213.237 333.15 213.324 334.506 213.083 335.824C212.843 337.141 212.283 338.379 211.454 339.43C210.624 340.481 209.549 341.313 208.323 341.852C207.831 342.069 207.508 342.549 207.492 343.086C207.476 343.623 207.77 344.121 208.249 344.366C211.257 345.908 213.884 348.103 215.938 350.789C217.991 353.475 219.42 356.585 220.119 359.894C220.819 363.202 220.771 366.624 219.98 369.911C219.19 373.199 217.676 376.269 215.548 378.897C215.065 379.495 215.157 380.371 215.755 380.855C216.353 381.339 217.229 381.247 217.713 380.649C220.101 377.699 221.801 374.253 222.688 370.563C223.576 366.873 223.629 363.031 222.844 359.317C222.059 355.604 220.455 352.113 218.15 349.097C216.343 346.733 214.14 344.708 211.645 343.11C212.387 342.548 213.058 341.892 213.639 341.156C214.751 339.748 215.501 338.089 215.823 336.323C216.145 334.558 216.029 332.741 215.486 331.03C214.943 329.32 213.989 327.769 212.707 326.513Z" fill="#171717"/>
<path d="M866.929 585.531C871.92 602.703 870.825 621.073 863.829 637.531L863.891 637.584C862.716 639.042 861.523 640.49 860.304 641.912L860.075 641.712C856.85 629.769 854.646 617.575 853.486 605.259C852.85 598.608 852.55 591.789 854.361 585.359C854.762 583.672 855.521 582.09 856.586 580.722C857.126 580.042 857.818 579.499 858.607 579.137C859.396 578.775 860.259 578.603 861.126 578.637C864.306 578.933 866.028 582.457 866.929 585.531Z" fill="url(#paint4_linear_46_7745)"/>
<path d="M864.561 637.194C879.047 630.154 893.833 623.027 909.784 620.8C911.42 620.493 913.097 620.472 914.739 620.738C915.559 620.88 916.335 621.205 917.011 621.69C917.686 622.175 918.243 622.807 918.639 623.538C919.902 626.223 918.021 629.324 915.954 631.452C909.029 638.563 899.154 642.201 889.297 643.385C879.519 644.559 869.609 643.535 859.814 642.475C859.982 642.289 860.141 642.104 860.299 641.91C861.518 640.487 862.71 639.039 863.886 637.581C864.036 637.396 864.195 637.21 864.345 637.016L864.561 637.194Z" fill="url(#paint5_linear_46_7745)"/>
<path d="M708.93 373.291L709.036 372.231L709.787 372.31C717.082 353.729 729.449 337.57 745.479 325.674C748.915 331.822 746.698 339.559 743.545 345.866C735.854 361.129 723.35 373.434 707.966 380.879C707.982 380.803 707.994 380.726 708.002 380.649C708.347 378.2 708.648 375.746 708.93 373.291Z" fill="#171717"/>
<path d="M737.9 289.954C740.046 291.721 740.108 294.954 739.728 297.709C738.525 305.728 735.21 313.283 730.124 319.597C725.037 325.912 718.362 330.759 710.783 333.641L710.483 333.649C710.43 331.838 710.35 330.036 710.254 328.234L710.404 328.225C714.529 316.187 718.795 303.891 726.704 293.919C727.989 292.103 729.672 290.605 731.624 289.538C732.606 289.019 733.713 288.783 734.821 288.857C735.929 288.93 736.995 289.31 737.9 289.954V289.954Z" fill="#171717"/>
<path d="M710.484 333.651C710.493 333.827 710.502 334.005 710.502 334.181L709.76 334.208C705.228 329.439 699.223 326.418 693.649 322.919C688.075 319.42 682.6 315.076 680.214 308.938C679.234 306.411 678.89 303.364 680.426 301.13C681.06 300.291 681.88 299.612 682.821 299.144C683.762 298.677 684.798 298.434 685.849 298.436C687.954 298.453 690.021 299.003 691.855 300.036C696.942 302.66 700.838 307.2 703.629 312.199C706.42 317.198 708.204 322.674 709.971 328.124L710.253 328.151V328.239C710.351 330.039 710.428 331.843 710.484 333.651Z" fill="#171717"/>
<path d="M685.894 334.2C697.516 344.466 705.581 358.153 708.93 373.293C708.648 375.748 708.347 378.204 708.003 380.65L707.603 380.597C696.076 369.597 684.329 358.304 677.087 344.109C675.956 341.884 674.914 339.499 675.02 336.999C675.126 334.499 676.672 331.899 679.12 331.381C681.6 330.85 683.977 332.528 685.894 334.2Z" fill="#171717"/>
<path d="M682.255 666.872C683.518 687.178 672.355 707.953 654.344 717.404C636.333 726.855 612.397 723.993 597.655 709.976C582.913 695.959 578.955 671.624 589.176 654.029C593.884 645.938 601.065 639.649 609.12 635.021C623.597 626.691 635.212 624.766 651.076 628.697C669.757 633.334 681.054 647.554 682.255 666.872ZM671.444 681.252C677.432 665.706 671.303 652.21 658.566 642.838C648.841 635.692 640.591 634.173 628.95 637.388C620.62 639.688 612.822 643.006 606.674 649.288C597.708 658.456 593.645 672.341 596.852 684.76C600.059 697.179 610.658 707.54 623.279 709.86C633.746 711.786 644.679 708.377 653.557 702.494C661.4 697.3 668.061 690.031 671.444 681.252Z" fill="url(#paint6_linear_46_7745)"/>
<path d="M305.3 644.517C307.137 679.273 306.227 713.942 300.494 747.894C274.032 746.163 255.678 737.154 255.678 737.154L255.668 736.995C260.985 736.801 266.3 736.451 271.611 735.944C276.548 735.467 282.025 734.544 285.019 730.582C288.083 726.528 287.369 720.875 286.502 715.867C280.558 681.473 274.434 647.109 268.13 612.773H268.139C268.139 612.773 276.544 616.5 305.3 644.517Z" fill="url(#paint7_linear_46_7745)"/>
<path d="M235.543 453.13C240.869 452.158 246.177 451.019 251.432 449.711C255.69 448.651 260.662 447.653 264.381 449.517C265.086 449.862 265.735 450.312 266.306 450.851C268.93 453.315 269.459 457.211 269.848 460.788C270.364 464.806 270.531 468.861 270.348 472.907C270.021 477.57 268.838 481.996 265.879 485.564C261.736 490.571 255.095 492.586 248.832 494.308C247.781 494.6 246.738 494.882 245.687 495.165C234.964 498.08 224.197 500.818 213.306 503C192.787 507.116 171.642 509.271 150.894 506.436C147.961 506.048 145.051 505.502 142.176 504.802C134.889 502.982 127.982 499.918 122.992 494.441C117.657 488.594 115.149 480.547 114.936 472.633C114.723 464.719 116.668 456.884 119.326 449.421C126.02 430.643 136.25 414.682 151.035 401.309L151.106 400.841C152.711 401.083 154.339 401.131 155.955 400.982C158.348 400.772 160.678 400.103 162.818 399.012L162.924 399.224C160.159 407.235 163.859 416.845 171.05 421.332C178.241 425.819 188.185 425.068 194.925 419.919C198.239 417.252 200.792 413.759 202.327 409.792C203.862 405.824 204.325 401.523 203.669 397.319L203.652 397.204C208.457 396.612 213.03 394.8 216.936 391.94C235.707 397.363 254.756 401.776 274 405.159C275.272 417.759 276.88 430.606 278.743 443.959L278.902 444.286C278.478 444.498 278.045 444.71 277.602 444.922L277.364 444.422C277.52 441.129 276.887 437.846 275.518 434.847C274.776 433.222 273.292 431.456 271.552 431.888C271.025 432.102 270.548 432.423 270.151 432.831C269.754 433.238 269.446 433.724 269.246 434.256C267.841 437.01 266.853 439.957 266.314 443L265.245 442.718L240.434 437.918C239.189 437.679 237.758 437.476 236.751 438.254C235.674 439.084 235.568 440.63 235.542 441.982C235.497 445.426 235.447 448.871 235.391 452.316L235.543 453.13Z" fill="#171717"/>
<path d="M186.663 409.762C188.879 408.678 190.738 406.982 192.022 404.876C193.305 402.769 193.958 400.339 193.905 397.873L194.188 396.654C197.287 397.396 200.493 397.581 203.657 397.202L203.674 397.317C204.329 401.52 203.866 405.821 202.331 409.789C200.796 413.756 198.243 417.249 194.93 419.917C188.19 425.067 178.254 425.817 171.055 421.33C163.856 416.843 160.164 407.23 162.928 399.222L162.828 399.01C165.179 397.871 167.167 396.1 168.569 393.896L169.32 394.302C168.529 396.648 168.446 399.175 169.08 401.568C169.715 403.961 171.038 406.115 172.887 407.762C174.735 409.409 177.027 410.476 179.477 410.831C181.927 411.186 184.428 410.813 186.668 409.759L186.663 409.762Z" fill="url(#paint8_linear_46_7745)"/>
<path d="M142.826 558.53L143.073 558.547C140.533 592.84 131.933 626.412 117.673 657.703L117.573 657.658C88.5222 628.228 70.0362 588.587 75.4512 547.586C91.8442 549.286 105.614 551.304 116.346 553.141C133.446 556.066 142.826 558.53 142.826 558.53Z" fill="url(#paint9_linear_46_7745)"/>
<path d="M708.249 230.988C702.117 227.983 695.198 226.976 688.464 228.108C678.103 229.901 669.589 236.181 663.018 244.484C657.553 251.564 653.358 259.537 650.618 268.05C649.444 271.592 648.436 275.178 647.589 278.781C640.425 309.219 644.383 341.661 650.326 372.61C657.295 408.895 666.844 444.597 676.526 480.281C684.935 511.275 693.449 542.251 700.462 573.581C704.11 589.85 707.343 606.306 709.931 622.849C717.553 671.5 719.647 720.971 710.417 768.986C709.771 772.289 709.079 775.586 708.341 778.879" stroke="#171717" stroke-width="2.785" stroke-linecap="round" stroke-linejoin="round"/>
<path d="M712.957 233.876C711.483 232.777 709.913 231.813 708.267 230.996" stroke="#171717" stroke-width="2.785" stroke-linecap="round" stroke-linejoin="round"/>
<path d="M696.7 241.7C696.6 241.709 696.515 241.727 696.418 241.744C684.953 243.544 678.647 259.044 684.883 268.887C688.383 274.417 694.793 277.34 701.312 277.517C706.55 277.736 711.682 276.002 715.712 272.65C724.589 264.956 725.812 250.383 719.334 240.578C717.624 238.004 715.481 235.744 713 233.9" stroke="#171717" stroke-width="2.785" stroke-linecap="round" stroke-linejoin="round"/>
<path d="M708.012 778.923C570.867 774.223 429.305 774.198 292.426 784.002" stroke="#171717" stroke-width="2.785" stroke-linecap="round" stroke-linejoin="round"/>
<path d="M278.743 443.961C276.88 430.606 275.272 417.761 274 405.161C270.246 367.923 269.433 332.861 273.708 293.375C275.475 277.061 278.964 259.457 291.347 248.682C301.69 239.682 316.087 237.367 329.672 235.53C423.011 222.904 517 215.67 611.172 213.864C644.436 213.228 679.678 214.564 708.252 230.99C708.256 230.991 708.259 230.992 708.262 230.993C708.265 230.995 708.268 230.997 708.27 230.999C709.851 231.909 711.414 232.869 712.96 233.879C712.968 233.881 712.975 233.884 712.982 233.888C712.988 233.893 712.993 233.899 712.996 233.906C713.313 234.106 713.622 234.313 713.941 234.524" stroke="#171717" stroke-width="2.785" stroke-linecap="round" stroke-linejoin="round"/>
<path d="M292.425 784C295.772 772.12 298.467 760.066 300.498 747.891C306.23 713.939 307.14 679.27 305.304 644.514C303.476 609.872 298.909 575.141 293.671 540.942C293.571 540.261 293.471 539.572 293.362 538.893C288.919 510.028 287.47 500.258 283.425 471.234" stroke="#171717" stroke-width="2.785" stroke-linecap="round" stroke-linejoin="round"/>
<path d="M156.552 336.618C158.373 336.486 160.186 336.262 161.984 335.947C173.397 333.978 183.991 328.731 192.475 320.847C193.244 320.131 193.994 319.389 194.727 318.63" stroke="#171717" stroke-width="2.785" stroke-linecap="round" stroke-linejoin="round"/>
<path d="M189.771 391.618C190.499 393.086 191.42 394.449 192.509 395.673" stroke="#171717" stroke-width="2.785" stroke-linecap="round" stroke-linejoin="round"/>
<path d="M192.227 320.6C192.316 320.678 192.398 320.764 192.474 320.856C198.657 326.968 199.346 336.923 197.341 345.419C195.3 354.019 190.99 361.954 188.719 370.504C186.874 377.447 186.635 385.352 189.77 391.614" stroke="#171717" stroke-width="2.785" stroke-linecap="round" stroke-linejoin="round"/>
<path d="M162.028 336.176C164.554 350.67 167.074 365.161 169.589 379.65C170.136 382.821 170.675 386.133 170.207 389.27C170.073 390.205 169.836 391.123 169.501 392.007C169.246 392.664 168.933 393.297 168.565 393.898C167.163 396.102 165.174 397.873 162.823 399.012C160.683 400.103 158.353 400.771 155.961 400.982C154.345 401.13 152.717 401.083 151.112 400.841C144.363 399.861 138.057 395.691 135.24 389.5C131.751 381.824 134.559 371.613 141.891 367.453C138.903 364.764 136.735 361.286 135.636 357.42C134.538 353.553 134.554 349.455 135.682 345.597C136.811 341.739 139.006 338.278 142.015 335.613C145.024 332.947 148.725 331.186 152.691 330.532C152.938 329.432 153.176 328.315 153.424 327.211" stroke="#171717" stroke-width="2.785" stroke-linecap="round" stroke-linejoin="round"/>
<path d="M152.807 326.593C152.392 324.305 151.974 322.017 151.553 319.73L134.726 325.551L120.8 298.117L230.326 265.286L207.052 306.844L203.307 306.644C203.387 308.587 203.465 310.539 203.536 312.482C207.855 314.496 212.236 316.545 215.778 319.717C219.32 322.889 221.969 327.41 221.758 332.162C221.547 336.914 217.827 341.604 213.075 341.852C225.98 348.52 232.348 365.585 226.961 379.072C224.901 384.22 221.429 388.682 216.944 391.942C213.037 394.802 208.464 396.614 203.659 397.206C200.495 397.586 197.289 397.4 194.191 396.658C193.766 396.558 193.343 396.446 192.919 396.322" stroke="#171717" stroke-width="2.785" stroke-linecap="round" stroke-linejoin="round"/>
<path d="M171.126 334.233C172.221 333.419 173.562 333.004 174.926 333.058C176.288 333.113 177.589 333.638 178.609 334.542" stroke="#171717" stroke-width="1.857" stroke-linecap="round" stroke-linejoin="round"/>
<path d="M188.005 335.045C188.74 334.577 189.567 334.273 190.43 334.154C191.293 334.035 192.171 334.104 193.005 334.356" stroke="#171717" stroke-width="1.857" stroke-linecap="round" stroke-linejoin="round"/>
<path d="M184.2 330.7C185.617 329.773 187.25 329.231 188.939 329.125C190.629 329.02 192.317 329.356 193.837 330.1" stroke="#171717" stroke-width="1.857" stroke-linecap="round" stroke-linejoin="round"/>
<path d="M183.941 339.841C184.208 340.579 184.74 341.19 185.434 341.555C186.136 341.945 186.781 342.429 187.35 342.995C187.677 343.375 187.881 343.844 187.938 344.342C187.994 344.839 187.9 345.342 187.667 345.786C187.383 346.254 186.99 346.646 186.52 346.927C186.051 347.209 185.52 347.372 184.973 347.402" stroke="#171717" stroke-width="1.857" stroke-linecap="round" stroke-linejoin="round"/>
<path d="M183.35 360.961C182.76 361.342 182.079 361.559 181.377 361.588C180.675 361.618 179.978 361.459 179.358 361.129C178.095 360.436 176.967 359.522 176.028 358.429" stroke="#171717" stroke-width="1.857" stroke-linecap="round" stroke-linejoin="round"/>
<path d="M151.04 401.309C136.254 414.682 126.026 430.642 119.331 449.421C116.672 456.884 114.738 464.71 114.941 472.633C115.144 480.556 117.661 488.593 122.997 494.441C127.987 499.918 134.897 502.982 142.181 504.802C145.056 505.501 147.966 506.047 150.899 506.436C171.647 509.271 192.792 507.117 213.311 503C224.202 500.818 234.969 498.08 245.692 495.165C246.743 494.883 247.785 494.6 248.836 494.308C255.098 492.586 261.741 490.572 265.884 485.564C268.843 481.995 270.026 477.57 270.353 472.907C270.536 468.86 270.369 464.805 269.853 460.788C269.464 457.211 268.935 453.316 266.311 450.852C265.74 450.312 265.091 449.862 264.385 449.517C260.667 447.654 255.694 448.652 251.437 449.711C246.181 451.019 240.873 452.158 235.547 453.13C226.019 454.88 216.4 456.095 206.735 456.769C198.38 457.352 189.856 457.52 181.765 455.374C173.674 453.228 165.954 448.474 161.829 441.179" stroke="#171717" stroke-width="2.785" stroke-linecap="round" stroke-linejoin="round"/>
<path d="M216.676 391.857L216.941 391.937C235.711 397.361 254.758 401.775 274 405.159C274.027 405.159 274.044 405.168 274.07 405.168" stroke="#171717" stroke-width="2.785" stroke-linecap="round" stroke-linejoin="round"/>
<path d="M265.83 449.411C265.693 444.156 266.867 438.949 269.248 434.262C269.448 433.73 269.756 433.245 270.153 432.837C270.55 432.429 271.026 432.108 271.553 431.894C273.293 431.462 274.778 433.229 275.52 434.853C276.89 437.852 277.523 441.135 277.365 444.428" stroke="#171717" stroke-width="2.785" stroke-linecap="round" stroke-linejoin="round"/>
<path d="M270.935 472.941C275.111 472.568 279.249 471.838 283.301 470.759C290.231 468.929 296.862 466.109 302.988 462.386C304.014 461.84 304.919 461.092 305.647 460.186C306.007 459.73 306.235 459.185 306.307 458.609C306.379 458.032 306.291 457.447 306.054 456.918C305.259 455.469 303.298 455.248 301.654 455.266C300.365 455.275 299.066 455.319 297.776 455.389C290.458 455.805 283.232 457.221 276.3 459.6" stroke="#171717" stroke-width="2.785" stroke-linecap="round" stroke-linejoin="round"/>
<path d="M297.645 455.417C297.69 455.412 297.734 455.403 297.778 455.39C300.287 455.001 302.494 453.244 304.378 451.53C305.386 450.62 306.295 449.34 305.995 448.024C305.836 447.508 305.542 447.043 305.143 446.679C304.743 446.316 304.254 446.066 303.725 445.957C302.668 445.743 301.58 445.746 300.525 445.965C299.253 446.151 297.991 446.365 296.736 446.611C289.629 448.178 282.638 450.229 275.812 452.749" stroke="#171717" stroke-width="2.785" stroke-linecap="round" stroke-linejoin="round"/>
<path d="M296.673 446.3C297.991 445.336 299.153 444.174 300.118 442.856C300.503 442.322 300.726 441.688 300.762 441.03C300.797 440.373 300.643 439.719 300.318 439.146C299.232 437.557 296.874 437.715 295.009 438.166C289.425 439.591 284.02 441.645 278.899 444.287C278.474 444.498 278.041 444.71 277.599 444.923C277.466 444.993 277.325 445.055 277.184 445.123" stroke="#171717" stroke-width="2.785" stroke-linecap="round" stroke-linejoin="round"/>
<path d="M265.247 442.724L240.436 437.924C239.191 437.686 237.76 437.482 236.753 438.26C235.675 439.09 235.569 440.636 235.543 441.988C235.499 445.432 235.449 448.876 235.393 452.322" stroke="#171717" stroke-width="2.785" stroke-linecap="round" stroke-linejoin="round"/>
<path d="M142.049 505.301C142.711 511.175 143.191 517.057 143.489 522.949C144.092 534.812 143.954 546.702 143.074 558.549C140.534 592.842 131.934 626.413 117.674 657.705C111.945 670.279 105.314 682.423 97.8319 694.041C96.1809 696.62 94.4229 699.341 94.3319 702.397C94.1199 709.719 102.776 713.562 109.86 715.408C111.379 715.808 112.904 716.202 114.435 716.591C128.214 720.142 142.09 723.542 156.054 726.528C174.541 730.586 193.243 733.594 212.071 735.537C224.323 736.767 236.635 737.31 248.948 737.163C251.182 737.135 253.422 737.079 255.669 736.995C260.986 736.801 266.301 736.45 271.612 735.944C276.549 735.467 282.026 734.544 285.02 730.582C288.084 726.528 287.37 720.875 286.503 715.867C280.559 681.473 274.435 647.108 268.131 612.773C262.858 584.075 257.452 555.396 251.915 526.734C249.945 516.522 247.955 506.312 245.944 496.102" stroke="#171717" stroke-width="2.785" stroke-linecap="round" stroke-linejoin="round"/>
<path d="M169.315 394.3C168.725 396.054 168.527 397.916 168.736 399.755C168.945 401.593 169.556 403.363 170.525 404.94C171.493 406.517 172.797 407.861 174.343 408.878C175.889 409.895 177.639 410.56 179.471 410.826C181.302 411.092 183.17 410.952 184.941 410.416C186.712 409.88 188.344 408.962 189.721 407.725C191.098 406.489 192.186 404.966 192.909 403.262C193.632 401.559 193.972 399.717 193.905 397.868" stroke="#171717" stroke-width="2.785" stroke-linecap="round" stroke-linejoin="round"/>
<path d="M162.929 399.224C160.165 407.235 163.865 416.845 171.056 421.332C178.247 425.819 188.191 425.068 194.93 419.919C198.244 417.252 200.797 413.759 202.332 409.792C203.867 405.824 204.33 401.523 203.675 397.319" stroke="#171717" stroke-width="2.785" stroke-linecap="round" stroke-linejoin="round"/>
<path d="M170.914 389.366C171.738 391.407 172.815 393.336 174.12 395.107C175.443 396.888 177.389 398.106 179.57 398.516C180.659 398.625 181.759 398.517 182.805 398.198C183.852 397.88 184.826 397.358 185.67 396.661C187.354 395.265 188.747 393.552 189.77 391.618V391.609" stroke="#171717" stroke-width="2.785" stroke-linecap="round" stroke-linejoin="round"/>
<path d="M712.189 769.322C713.832 768.165 715.466 766.981 717.089 765.788C762.856 732.057 799.003 686.942 821.943 634.923C845.473 581.301 854.473 522.908 846.957 464.842" stroke="#171717" stroke-width="2.785" stroke-linecap="round" stroke-linejoin="round"/>
<path d="M846.959 464.842C812.979 481.527 782.639 506.355 758.384 536.142C737.331 561.867 721.144 591.216 710.617 622.747" stroke="#171717" stroke-width="2.785" stroke-linecap="round" stroke-linejoin="round"/>
<path d="M757.792 535.662C775.405 491.702 774.392 439.024 754.745 395.929C754.715 395.854 754.682 395.78 754.645 395.708" stroke="#171717" stroke-width="2.785" stroke-linecap="round" stroke-linejoin="round"/>
<path d="M754.577 396.009C719.361 414.284 691.37 443.493 676.531 480.281" stroke="#171717" stroke-width="2.785" stroke-linecap="round" stroke-linejoin="round"/>
<path d="M772.119 519.72C783.51 499.877 793.003 479.004 800.472 457.378C800.498 457.308 800.516 457.237 800.542 457.167C801.196 455.267 801.842 453.36 802.459 451.443C802.945 449.995 803.404 448.543 803.859 447.097C809.119 430.32 813.172 413.187 815.986 395.832C816.127 395.002 816.26 394.163 816.386 393.332C816.633 391.768 816.866 390.205 817.086 388.642C817.13 388.395 817.166 388.147 817.192 387.9C820.023 367.789 821.16 347.476 820.592 327.175" stroke="#171717" stroke-width="2.785" stroke-linecap="round" stroke-linejoin="round"/>
<path d="M820.354 327.158C835.301 319.991 847.973 308.826 856.966 294.9C858.245 293.134 859.186 291.145 859.739 289.035C860.007 287.977 860.018 286.87 859.771 285.806C859.524 284.743 859.025 283.754 858.317 282.923C855.437 279.929 850.368 281.423 846.852 283.647C834.221 291.64 827.058 305.747 820.486 319.181C820.486 319.19 820.478 319.198 820.478 319.207" stroke="#171717" stroke-width="2.785" stroke-linecap="round" stroke-linejoin="round"/>
<path d="M820.266 319.076C816.3 313.534 811.2 308.9 805.305 305.481C799.41 302.062 792.855 299.937 786.075 299.246C784.069 298.965 782.026 299.091 780.069 299.617C779.093 299.891 778.196 300.392 777.451 301.08C776.706 301.768 776.135 302.623 775.785 303.574C775.061 305.915 776.227 308.503 778.038 310.155C779.95 311.691 782.13 312.859 784.468 313.599C796.357 318.149 808.24 322.698 820.117 327.246" stroke="#171717" stroke-width="2.785" stroke-linecap="round" stroke-linejoin="round"/>
<path d="M817.024 388.73C817.042 388.703 817.059 388.668 817.077 388.642C826.605 372.298 838.841 357.693 853.264 345.45C855.175 343.628 857.438 342.215 859.915 341.298C862.442 340.539 865.471 340.918 867.228 342.879C868.446 344.479 869.072 346.452 869 348.462C869.265 356.684 865.034 364.581 859.126 370.305C853.218 376.029 845.753 379.862 838.226 383.183C830.877 386.416 823.308 389.269 816.383 393.331C816.215 393.431 816.056 393.525 815.883 393.623" stroke="#171717" stroke-width="2.785" stroke-linecap="round" stroke-linejoin="round"/>
<path d="M816.609 387.9C812.873 369.06 800.481 350.529 784.14 340.442C781.878 339.047 778.929 337.783 776.694 339.232C774.972 340.363 774.477 342.774 775.007 344.77C775.671 346.731 776.739 348.53 778.142 350.052C790.42 365.377 802.824 380.605 815.355 395.735" stroke="#171717" stroke-width="2.785" stroke-linecap="round" stroke-linejoin="round"/>
<path d="M802.831 451.566C812.54 434.694 826.343 420.538 842.966 410.407C845.987 408.569 849.229 406.838 852.766 406.6C856.303 406.362 860.186 408.048 861.493 411.334C863.193 415.627 860.027 420.22 856.812 423.534C841.594 439.234 821.384 449.016 801.184 457.381L802.421 455.906" stroke="#171717" stroke-width="2.785" stroke-linecap="round" stroke-linejoin="round"/>
<path d="M803.316 446.929C802.632 429.08 797.511 411.682 788.416 396.309C787.402 394.335 785.97 392.605 784.221 391.239C782.393 389.994 779.831 389.578 777.985 390.806C775.185 392.679 775.547 396.839 776.324 400.116C781.027 420.14 788.771 439.324 799.288 457" stroke="#171717" stroke-width="2.785" stroke-linecap="round" stroke-linejoin="round"/>
<path d="M675.825 477.57C692.377 447.583 703.272 414.808 707.967 380.879C707.983 380.804 707.995 380.727 708.003 380.649C708.347 378.203 708.648 375.749 708.93 373.292L709.036 372.231C710.402 359.597 710.891 346.883 710.5 334.18C710.5 334.004 710.491 333.826 710.482 333.65C710.429 331.839 710.349 330.037 710.253 328.235V328.147" stroke="#171717" stroke-width="2.785" stroke-linecap="round" stroke-linejoin="round"/>
<path d="M710.785 333.641C718.364 330.758 725.039 325.911 730.126 319.597C735.213 313.283 738.528 305.728 739.73 297.71C740.11 294.955 740.047 291.722 737.902 289.955C736.997 289.31 735.93 288.929 734.821 288.856C733.712 288.783 732.605 289.019 731.622 289.54C729.67 290.606 727.987 292.105 726.702 293.922C718.802 303.894 714.531 316.188 710.402 328.228" stroke="#171717" stroke-width="2.785" stroke-linecap="round" stroke-linejoin="round"/>
<path d="M709.973 328.12C708.206 322.671 706.42 317.185 703.63 312.195C700.84 307.205 696.943 302.656 691.856 300.032C690.022 299 687.955 298.449 685.851 298.432C684.8 298.43 683.763 298.673 682.822 299.14C681.881 299.608 681.061 300.288 680.427 301.126C678.89 303.361 679.235 306.408 680.215 308.934C682.6 315.072 688.076 319.427 693.65 322.915C699.224 326.403 705.231 329.434 709.762 334.204" stroke="#171717" stroke-width="2.785" stroke-linecap="round" stroke-linejoin="round"/>
<path d="M708.992 373.582C708.975 373.482 708.948 373.388 708.93 373.291C705.581 358.152 697.515 344.465 685.894 334.2C683.977 332.53 681.601 330.852 679.12 331.382C676.674 331.903 675.12 334.499 675.02 337C674.92 339.501 675.956 341.884 677.087 344.11C684.329 358.305 696.077 369.601 707.603 380.598" stroke="#171717" stroke-width="2.785" stroke-linecap="round" stroke-linejoin="round"/>
<path d="M707.905 380.914C707.928 380.905 707.949 380.894 707.967 380.879C723.351 373.433 735.855 361.128 743.546 345.866C746.698 339.559 748.915 331.822 745.48 325.674C729.45 337.569 717.083 353.728 709.788 372.31" stroke="#171717" stroke-width="2.785" stroke-linecap="round" stroke-linejoin="round"/>
<path d="M717.568 766.435C736.934 772.244 757.295 773.973 777.363 771.513C797.431 769.054 816.771 762.458 834.16 752.144C841.985 747.436 849.37 741.986 857.328 737.499C865.286 733.012 874.013 729.461 883.137 729.02" stroke="#171717" stroke-width="2.785" stroke-linecap="round" stroke-linejoin="round"/>
<path d="M782.109 702.759C790.129 696.359 801.209 695.233 811.416 696.294C824.665 697.663 837.437 702.238 849.343 708.218C861.16 714.171 872.22 721.511 883.252 728.842C883.322 728.895 883.402 728.942 883.473 728.993" stroke="#171717" stroke-width="2.785" stroke-linecap="round" stroke-linejoin="round"/>
<path d="M755.2 733.576C766.512 728.305 778.585 724.85 790.973 723.339C803.029 721.873 815.926 722.067 826.25 715.663" stroke="#171717" stroke-width="2.785" stroke-linecap="round" stroke-linejoin="round"/>
<path d="M785.156 698.669C813.825 685.576 839.302 666.402 859.818 642.476C859.986 642.29 860.145 642.105 860.303 641.91C861.522 640.488 862.715 639.04 863.89 637.582C864.04 637.397 864.199 637.211 864.349 637.017L864.561 636.752" stroke="#171717" stroke-width="2.785" stroke-linecap="round" stroke-linejoin="round"/>
<path d="M863.829 637.529C870.825 621.071 871.92 602.702 866.929 585.529C866.029 582.455 864.305 578.929 861.129 578.629C860.262 578.596 859.399 578.767 858.61 579.13C857.822 579.492 857.129 580.035 856.589 580.714C855.523 582.082 854.765 583.664 854.364 585.351C852.553 591.781 852.853 598.6 853.489 605.251C854.65 617.567 856.854 629.761 860.078 641.704" stroke="#171717" stroke-width="2.785" stroke-linecap="round" stroke-linejoin="round"/>
<path d="M859.615 642.458C859.681 642.469 859.748 642.475 859.815 642.476C869.615 643.536 879.52 644.56 889.298 643.386C899.155 642.202 909.03 638.563 915.955 631.453C918.022 629.324 919.904 626.224 918.64 623.539C918.244 622.808 917.687 622.177 917.011 621.692C916.336 621.207 915.559 620.881 914.74 620.739C913.098 620.473 911.422 620.494 909.786 620.801C893.834 623.028 879.048 630.155 864.562 637.195" stroke="#171717" stroke-width="2.785" stroke-linecap="round" stroke-linejoin="round"/>
<path d="M698.764 561.807C703.798 548.929 708.55 535.948 713.02 522.863C721.658 497.646 729.224 472.096 735.72 446.213" stroke="#171717" stroke-width="2.785" stroke-linecap="round" stroke-linejoin="round"/>
<path d="M717.268 708.782C724.794 697.247 732.284 685.72 739.615 674.114C747.246 662.031 754.701 649.877 761.82 637.573C770.768 622.142 779.177 606.482 786.746 590.459C798.291 566.037 807.901 540.766 814.498 514.136" stroke="#171717" stroke-width="2.785" stroke-linecap="round" stroke-linejoin="round"/>
<path d="M785.456 591.865C785.447 591.765 785.439 591.671 785.43 591.573C783.962 577.23 781.703 562.979 778.663 548.885" stroke="#171717" stroke-width="2.785" stroke-linecap="round" stroke-linejoin="round"/>
<path d="M785.032 591.909C785.165 591.793 785.297 591.688 785.432 591.572C785.873 591.201 786.306 590.831 786.748 590.459C798.01 580.947 809.269 571.434 820.524 561.921" stroke="#171717" stroke-width="2.785" stroke-linecap="round" stroke-linejoin="round"/>
<path d="M760.539 638.024C760.636 619.612 758.872 601.238 755.275 583.182" stroke="#171717" stroke-width="2.785" stroke-linecap="round" stroke-linejoin="round"/>
<path d="M759.727 638.563C760.427 638.236 761.122 637.909 761.82 637.573C778.921 629.454 795.086 619.496 810.029 607.873" stroke="#171717" stroke-width="2.785" stroke-linecap="round" stroke-linejoin="round"/>
<path d="M738.908 674.3C739.147 674.237 739.376 674.185 739.615 674.114C749.621 671.594 759.474 668.5 769.125 664.849" stroke="#171717" stroke-width="2.785" stroke-linecap="round" stroke-linejoin="round"/>
<path d="M737.918 674.494C739.658 658.612 739.254 642.568 736.718 626.794" stroke="#171717" stroke-width="2.785" stroke-linecap="round" stroke-linejoin="round"/>
<path d="M713.055 523.27C713.046 523.137 713.028 522.996 713.02 522.863C711.793 508.538 709.537 494.319 706.271 480.316" stroke="#171717" stroke-width="2.785" stroke-linecap="round" stroke-linejoin="round"/>
<path d="M713.055 523.271C723.775 516.852 734.898 511.132 746.355 506.144" stroke="#171717" stroke-width="2.785" stroke-linecap="round" stroke-linejoin="round"/>
<path d="M726.639 478.692C724.631 463.834 721.061 449.229 715.987 435.12" stroke="#171717" stroke-width="2.785" stroke-linecap="round" stroke-linejoin="round"/>
<path d="M727.028 479.036C734.58 471.616 740.914 464.542 748.457 457.122" stroke="#171717" stroke-width="2.785" stroke-linecap="round" stroke-linejoin="round"/>
<path d="M696.3 241.083C685.17 241.852 674.077 242.986 663.019 244.483" stroke="#171717" stroke-width="2.785" stroke-linecap="round" stroke-linejoin="round"/>
<path d="M702.4 277.748L701.3 277.721C683.254 277.297 666.066 277.341 648.056 278.895" stroke="#171717" stroke-width="2.785" stroke-linecap="round" stroke-linejoin="round"/>
<path d="M355.438 355.811C356.806 349.257 358.299 342.447 362.451 337.182C366.603 331.917 374.242 328.774 380.187 331.856C387.156 335.469 389.02 345.732 396.387 348.471C401.828 350.485 407.914 347.314 411.932 343.119C415.95 338.924 418.777 333.667 423.078 329.763C427.379 325.859 434.084 323.563 438.978 326.681C444.163 329.981 445.046 337.704 450.24 340.981C454.93 343.94 461.272 341.989 465.688 338.632C470.103 335.275 473.487 330.665 478.053 327.52C482.619 324.375 489.254 323.02 493.502 326.585C496.788 329.358 497.672 334.243 500.966 337.007C505.099 340.469 511.53 339.286 516.052 336.344C520.574 333.402 524.019 329.057 528.383 325.895C532.747 322.733 538.866 320.887 543.482 323.678C547.854 326.319 549.347 332.139 553.49 335.133C557.641 338.145 563.595 337.518 568.046 334.975C572.497 332.432 575.811 328.315 578.999 324.287" stroke="#171717" stroke-width="2.785" stroke-linecap="round" stroke-linejoin="round"/>
<path d="M355.438 442.557L588.62 428.222" stroke="#171717" stroke-width="2.785" stroke-linecap="round" stroke-linejoin="round"/>
<path d="M360.428 482.463L593.61 464.382" stroke="#171717" stroke-width="2.785" stroke-linecap="round" stroke-linejoin="round"/>
<path d="M365.41 528.596L595.474 507.398" stroke="#171717" stroke-width="2.785" stroke-linecap="round" stroke-linejoin="round"/>
<path d="M589.176 654.029C578.956 671.629 582.905 695.967 597.655 709.975C612.405 723.983 636.333 726.855 654.344 717.404C672.355 707.953 683.518 687.178 682.255 666.871C681.055 647.554 669.755 633.334 651.076 628.696C635.212 624.766 623.597 626.696 609.12 635.021C601.065 639.649 593.884 645.938 589.176 654.029Z" stroke="#171717" stroke-width="2.785" stroke-linecap="round" stroke-linejoin="round"/>
<path d="M606.674 649.286C597.708 658.454 593.645 672.339 596.852 684.758C600.059 697.177 610.658 707.537 623.279 709.858C633.746 711.784 644.679 708.375 653.557 702.491C661.4 697.298 668.057 690.029 671.444 681.249C677.432 665.703 671.303 652.207 658.566 642.835C648.841 635.689 640.591 634.17 628.95 637.385C620.621 639.693 612.822 643.006 606.674 649.286Z" stroke="#171717" stroke-width="2.785" stroke-linecap="round" stroke-linejoin="round"/>
<path d="M469.361 730.166C468.923 730.72 468.687 731.408 468.691 732.114C468.696 732.821 468.942 733.505 469.388 734.053C470.548 735.234 472.049 736.022 473.681 736.305C489.949 740.704 507.098 740.668 523.347 736.199" stroke="#171717" stroke-width="2.785" stroke-linecap="round" stroke-linejoin="round"/>
<path d="M469.37 730.158C469.554 730.045 469.731 729.921 469.9 729.787C469.704 729.88 469.525 730.005 469.37 730.158V730.158Z" stroke="#171717" stroke-width="2.785" stroke-linecap="round" stroke-linejoin="round"/>
<path d="M469.37 730.158C469.37 730.167 469.37 730.167 469.361 730.167" stroke="#171717" stroke-width="2.785" stroke-linecap="round" stroke-linejoin="round"/>
<path d="M456.28 719.735C456.192 719.973 456.112 720.212 456.05 720.451C455.563 722.178 455.616 724.012 456.202 725.708C456.788 727.404 457.879 728.879 459.328 729.937C460.777 730.995 462.515 731.583 464.309 731.624C466.102 731.665 467.866 731.157 469.362 730.166" stroke="#171717" stroke-width="2.785" stroke-linecap="round" stroke-linejoin="round"/>
<path d="M409.334 736.217C409.661 736.473 409.997 736.717 410.341 736.941C413.627 739.041 418.149 739.387 421.417 737.25C427.362 733.372 427.768 723.091 434.617 721.201C431.269 724.318 432.585 730.537 436.507 732.895C440.429 735.253 445.737 734.185 449.297 731.305C452.662 728.593 454.702 724.574 456.053 720.449" stroke="#171717" stroke-width="2.785" stroke-linecap="round" stroke-linejoin="round"/>
<path d="M409.334 736.217C411.383 733.69 412.829 730.73 413.565 727.56C414.144 725.57 414.144 723.456 413.565 721.465C413.326 720.429 412.75 719.502 411.929 718.827C411.107 718.152 410.085 717.768 409.022 717.735C407.959 717.702 406.915 718.021 406.053 718.643C405.191 719.265 404.559 720.155 404.255 721.174C403.55 723.177 403.483 725.349 404.061 727.392C404.786 730.84 406.642 733.946 409.334 736.217V736.217Z" stroke="#171717" stroke-width="2.785" stroke-linecap="round" stroke-linejoin="round"/>
<path d="M390.971 740.837C393.038 741.805 395.301 742.282 397.583 742.228C399.865 742.174 402.104 741.592 404.123 740.527C406.13 739.452 407.902 737.987 409.334 736.217" stroke="#171717" stroke-width="2.785" stroke-linecap="round" stroke-linejoin="round"/>
<path d="M390.971 740.837C392.902 738.022 394.306 734.879 395.114 731.562C396.077 728.267 396.492 723.862 393.48 722.226C391.18 720.981 388.224 722.367 386.625 724.426C383.242 728.78 384.4 735.705 388.595 739.274C389.322 739.887 390.12 740.411 390.971 740.837V740.837Z" stroke="#171717" stroke-width="2.785" stroke-linecap="round" stroke-linejoin="round"/>
<path d="M377.113 743.486C378.341 744.452 379.788 745.101 381.326 745.376C384.85 745.942 388.41 743.989 390.671 741.226C390.777 741.093 390.871 740.969 390.971 740.837" stroke="#171717" stroke-width="2.785" stroke-linecap="round" stroke-linejoin="round"/>
<path d="M377.113 743.486C376.226 746.6 374.51 749.414 372.149 751.63C367.609 755.755 360.057 756.744 355.287 752.875C353.171 751.161 351.77 748.721 351.355 746.031C350.941 743.34 351.543 740.591 353.045 738.321C354.547 736.05 356.841 734.42 359.479 733.749C362.117 733.077 364.911 733.412 367.316 734.689C371.159 736.729 373.721 740.978 377.113 743.486Z" stroke="#171717" stroke-width="2.785" stroke-linecap="round" stroke-linejoin="round"/>
<path d="M363.828 686.763C363.684 691.374 364.266 695.978 365.551 700.409C367.273 706.301 370.188 711.759 372.785 717.324C375.382 722.889 377.696 728.718 378.085 734.839C378.285 737.756 377.956 740.686 377.113 743.486" stroke="#171717" stroke-width="2.785" stroke-linecap="round" stroke-linejoin="round"/>
<path d="M363.828 686.763C367.205 688.233 370.889 688.859 374.562 688.587C378.235 688.315 381.787 687.153 384.911 685.202C388.035 683.251 390.637 680.569 392.493 677.388C394.349 674.207 395.403 670.622 395.564 666.942C395.838 661.068 392.887 654.342 387.146 653.092C381.882 651.944 376.838 655.812 373.482 660.025C367.479 667.672 364.095 677.046 363.828 686.763V686.763Z" stroke="#171717" stroke-width="2.785" stroke-linecap="round" stroke-linejoin="round"/>
<path d="M357.187 682.506C359.122 684.317 361.373 685.76 363.828 686.763" stroke="#171717" stroke-width="2.785" stroke-linecap="round" stroke-linejoin="round"/>
<path d="M212.057 735.757C211.359 746.745 210.664 757.73 209.972 768.712C209.857 769.593 209.92 770.488 210.158 771.344C210.409 771.937 210.787 772.468 211.264 772.9C211.742 773.331 212.308 773.654 212.923 773.844C214.155 774.218 215.436 774.408 216.723 774.41C218.366 774.489 220.335 774.4 221.183 772.997C221.5 772.363 221.667 771.664 221.669 770.956C221.936 767.582 222.203 764.208 222.469 760.834" stroke="#171717" stroke-width="2.785" stroke-linecap="round" stroke-linejoin="round"/>
<path d="M221.648 760.9C221.904 760.811 222.169 760.732 222.434 760.661C223.845 760.299 225.321 760.276 226.741 760.594C228.162 760.911 229.488 761.56 230.61 762.488C231.732 763.415 232.62 764.595 233.199 765.931C233.778 767.266 234.034 768.72 233.944 770.173C233.844 771.692 233.476 773.486 234.607 774.51C235.337 775.033 236.219 775.299 237.115 775.269C247.769 776.011 258.427 776.756 269.089 777.504C271.13 777.645 273.479 777.672 274.84 776.144C275.412 775.389 275.722 774.468 275.722 773.521C275.722 772.574 275.412 771.653 274.84 770.898C273.655 769.404 272.004 768.348 270.15 767.898C268.339 767.351 266.45 767.098 264.65 766.521C259.077 764.736 254.85 759.958 252.487 754.606C250.124 749.254 249.405 743.326 248.963 737.497" stroke="#171717" stroke-width="2.785" stroke-linecap="round" stroke-linejoin="round"/>
<path d="M114.385 716.785C109.969 725.262 105.552 733.744 101.136 742.232C100.817 742.776 100.584 743.366 100.447 743.981C100.381 744.788 100.555 745.596 100.946 746.305C101.338 747.014 101.929 747.591 102.647 747.965C104.097 748.688 105.677 749.115 107.293 749.219C108.76 745.607 110.223 741.998 111.682 738.39C111.727 738.29 111.762 738.19 111.806 738.09" stroke="#171717" stroke-width="2.785" stroke-linecap="round" stroke-linejoin="round"/>
<path d="M111.338 738.248C111.453 738.301 111.567 738.348 111.682 738.389C113.704 739.236 115.854 739.741 118.042 739.882C117.734 743.599 117.88 747.339 118.475 751.02C119.087 754.733 121.031 758.096 123.942 760.48C127.219 762.944 131.494 763.465 135.477 764.411C144.045 766.442 152.462 770.77 161.172 769.516C158.172 765.144 152.728 763.006 149.513 758.793C145.979 754.155 145.742 747.655 147.464 742.093C149.186 736.531 152.605 731.661 155.978 726.91" stroke="#171717" stroke-width="2.785" stroke-linecap="round" stroke-linejoin="round"/>
<path d="M142.826 558.53C142.826 558.53 133.445 556.066 116.346 553.142C105.614 551.305 91.8463 549.291 75.4463 547.587" stroke="#171717" stroke-width="2.785" stroke-linecap="round" stroke-linejoin="round"/>
<path d="M305.373 644.587L305.303 644.518C276.544 616.5 268.143 612.772 268.143 612.772" stroke="#171717" stroke-width="2.785" stroke-linecap="round" stroke-linejoin="round"/>
<path d="M255.681 737.154C255.681 737.154 274.036 746.163 300.498 747.894C300.523 747.903 300.551 747.906 300.578 747.904" stroke="#171717" stroke-width="2.785" stroke-linecap="round" stroke-linejoin="round"/>
<path d="M75.4499 547.587C70.0359 588.587 88.5219 628.229 117.573 657.659" stroke="#171717" stroke-width="2.785" stroke-linecap="round" stroke-linejoin="round"/>
<path d="M142.516 522.988C128.116 523.827 116.646 523.217 102.616 519.87" stroke="#171717" stroke-width="2.785" stroke-linecap="round" stroke-linejoin="round"/>
<path d="M293.229 541.014C271.28 529.232 251.936 526.732 251.936 526.732" stroke="#171717" stroke-width="2.785" stroke-linecap="round" stroke-linejoin="round"/>
<path d="M102.116 520.505C102.852 532.354 108.02 543.492 116.593 551.705C116.142 551.405 115.693 551.096 115.233 550.795" stroke="#171717" stroke-width="2.785" stroke-linecap="round" stroke-linejoin="round"/>
<path d="M278.1 189.633L289.5 186.504C289.671 186.457 289.852 186.464 290.019 186.523C290.186 186.582 290.331 186.691 290.434 186.835C290.537 186.979 290.594 187.151 290.596 187.328C290.598 187.505 290.546 187.679 290.447 187.825L283.817 197.616C283.721 197.758 283.669 197.925 283.668 198.096C283.667 198.267 283.716 198.435 283.81 198.578L290.31 208.457C290.407 208.605 290.456 208.779 290.452 208.956C290.447 209.133 290.388 209.305 290.283 209.447C290.178 209.59 290.032 209.697 289.865 209.754C289.697 209.811 289.516 209.815 289.346 209.766L277.985 206.485C277.82 206.438 277.645 206.44 277.482 206.492C277.318 206.544 277.174 206.643 277.067 206.777L269.68 216.011C269.569 216.149 269.419 216.25 269.249 216.301C269.079 216.351 268.898 216.348 268.73 216.292C268.562 216.236 268.415 216.13 268.309 215.988C268.203 215.846 268.143 215.675 268.137 215.498L267.746 203.68C267.74 203.509 267.684 203.343 267.584 203.204C267.484 203.065 267.345 202.959 267.185 202.898L256.121 198.726C255.955 198.664 255.813 198.552 255.713 198.406C255.612 198.26 255.559 198.087 255.561 197.909C255.562 197.732 255.617 197.56 255.719 197.415C255.821 197.271 255.965 197.161 256.132 197.1L267.251 193.076C267.412 193.018 267.552 192.914 267.654 192.776C267.756 192.638 267.814 192.473 267.822 192.302L268.371 180.489C268.379 180.312 268.442 180.142 268.55 180.002C268.657 179.861 268.806 179.757 268.975 179.704C269.143 179.65 269.325 179.65 269.494 179.702C269.663 179.754 269.812 179.858 269.921 179.997L277.183 189.329C277.288 189.465 277.432 189.567 277.595 189.621C277.758 189.675 277.934 189.679 278.1 189.633V189.633Z" stroke="#171717" stroke-width="2.785" stroke-miterlimit="10"/>
<path d="M57.3619 422.081L66.6619 419.088C66.8012 419.043 66.9509 419.042 67.0909 419.085C67.2308 419.128 67.3543 419.213 67.4446 419.328C67.5349 419.443 67.5878 419.583 67.5961 419.729C67.6043 419.875 67.5676 420.02 67.4909 420.145L62.3689 428.468C62.2948 428.589 62.2581 428.728 62.2634 428.87C62.2688 429.011 62.3159 429.148 62.3989 429.262L68.1199 437.184C68.2055 437.303 68.2528 437.445 68.2553 437.591C68.2577 437.737 68.2153 437.881 68.1337 438.002C68.0521 438.124 67.9353 438.217 67.7989 438.27C67.6625 438.324 67.5131 438.334 67.3709 438.299L57.8709 435.999C57.7333 435.966 57.589 435.974 57.4561 436.023C57.3231 436.071 57.2076 436.158 57.1239 436.272L51.3579 444.161C51.2716 444.279 51.1511 444.368 51.0128 444.416C50.8745 444.463 50.7248 444.467 50.5841 444.427C50.4434 444.387 50.3182 444.305 50.2256 444.192C50.1329 444.079 50.0772 443.94 50.0659 443.794L49.3169 434.05C49.3064 433.909 49.2541 433.774 49.1667 433.662C49.0792 433.551 48.9606 433.468 48.8259 433.424L39.5399 430.378C39.401 430.332 39.2794 430.245 39.1915 430.128C39.1036 430.011 39.0537 429.87 39.0483 429.724C39.043 429.578 39.0825 429.434 39.1617 429.311C39.2408 429.188 39.3557 429.092 39.4909 429.036L48.5269 425.314C48.6578 425.26 48.7698 425.169 48.8488 425.051C48.9278 424.934 48.9703 424.796 48.9709 424.654L48.9989 414.881C48.9997 414.735 49.0452 414.592 49.1293 414.473C49.2134 414.353 49.3321 414.262 49.4694 414.212C49.6067 414.161 49.7562 414.154 49.8976 414.191C50.0391 414.228 50.1659 414.308 50.2609 414.419L56.5929 421.862C56.6845 421.971 56.8067 422.05 56.9438 422.09C57.0809 422.129 57.2265 422.126 57.3619 422.081Z" fill="#171717"/>
<path d="M800.189 255.606L811.594 252.478C811.765 252.431 811.946 252.437 812.113 252.496C812.28 252.555 812.425 252.664 812.528 252.808C812.632 252.952 812.688 253.124 812.691 253.301C812.693 253.479 812.641 253.652 812.541 253.799L805.91 263.59C805.814 263.732 805.762 263.899 805.761 264.07C805.76 264.241 805.81 264.409 805.904 264.552L812.404 274.431C812.501 274.579 812.551 274.753 812.546 274.93C812.541 275.107 812.482 275.278 812.377 275.421C812.272 275.563 812.126 275.67 811.959 275.727C811.791 275.784 811.61 275.789 811.44 275.74L800.079 272.459C799.915 272.411 799.74 272.413 799.576 272.465C799.413 272.517 799.269 272.616 799.162 272.75L791.774 281.984C791.663 282.122 791.513 282.223 791.343 282.273C791.174 282.323 790.993 282.32 790.825 282.265C790.657 282.209 790.51 282.103 790.404 281.961C790.298 281.82 790.237 281.649 790.231 281.472L789.841 269.653C789.835 269.482 789.779 269.316 789.679 269.177C789.58 269.038 789.441 268.931 789.281 268.871L778.214 264.7C778.048 264.637 777.906 264.526 777.806 264.38C777.705 264.234 777.652 264.061 777.653 263.884C777.655 263.706 777.71 263.534 777.812 263.389C777.915 263.245 778.059 263.135 778.225 263.075L789.345 259.051C789.506 258.992 789.646 258.888 789.748 258.75C789.849 258.612 789.908 258.448 789.916 258.277L790.464 246.464C790.472 246.287 790.535 246.117 790.642 245.976C790.75 245.835 790.899 245.731 791.068 245.678C791.236 245.624 791.418 245.623 791.587 245.676C791.756 245.728 791.905 245.831 792.014 245.971L799.277 255.304C799.382 255.439 799.525 255.54 799.687 255.593C799.85 255.647 800.024 255.651 800.189 255.606Z" stroke="url(#paint10_linear_46_7745)" stroke-width="2.785" stroke-miterlimit="10"/>
<path d="M270.33 256.761C264.406 249.903 258.483 243.044 252.56 236.186" stroke="#171717" stroke-width="2.785" stroke-linecap="round" stroke-linejoin="round"/>
<path d="M253.033 256.117C256.709 250.153 260.384 244.19 264.059 238.227" stroke="#171717" stroke-width="2.785" stroke-linecap="round" stroke-linejoin="round"/>
<path d="M323.635 196.469L335.554 176.685" stroke="url(#paint11_linear_46_7745)" stroke-width="2.785" stroke-linecap="round" stroke-linejoin="round"/>
<path d="M336.459 196.249L319.709 176.538" stroke="url(#paint12_linear_46_7745)" stroke-width="2.785" stroke-linecap="round" stroke-linejoin="round"/>
<path d="M91.39 491.813L71.751 474.979" stroke="url(#paint13_linear_46_7745)" stroke-width="2.785" stroke-linecap="round" stroke-linejoin="round"/>
<path d="M75.3916 494.568C79.1416 487.091 82.8909 479.614 86.6396 472.136" stroke="url(#paint14_linear_46_7745)" stroke-width="2.785" stroke-linecap="round" stroke-linejoin="round"/>
<path d="M91.3901 664.831L73.6211 647.061" stroke="#171717" stroke-width="2.785" stroke-linecap="round" stroke-linejoin="round"/>
<path d="M76.5508 663.981L87.7328 648.055" stroke="#171717" stroke-width="2.785" stroke-linecap="round" stroke-linejoin="round"/>
<path d="M887.711 442.924L875.3 421.559" stroke="url(#paint15_linear_46_7745)" stroke-width="2.785" stroke-linecap="round" stroke-linejoin="round"/>
<path d="M874.093 441.224L888.141 428.151" stroke="url(#paint16_linear_46_7745)" stroke-width="2.785" stroke-linecap="round" stroke-linejoin="round"/>
<path d="M879.974 324.243C876.214 319.896 872.452 315.55 868.69 311.204" stroke="#171717" stroke-width="2.785" stroke-linecap="round" stroke-linejoin="round"/>
<path d="M869.44 323.416L877.853 315" stroke="#171717" stroke-width="2.785" stroke-linecap="round" stroke-linejoin="round"/>
<path d="M765.688 326.278L757.271 312.25" stroke="#171717" stroke-width="2.785" stroke-linecap="round" stroke-linejoin="round"/>
<path d="M755.583 324.621L768.638 313.354" stroke="#171717" stroke-width="2.785" stroke-linecap="round" stroke-linejoin="round"/>
<path d="M304.583 696.122L281.525 681.913C281.162 681.69 281.016 681.221 280.665 680.98C280.314 680.739 279.647 681.143 279.943 681.448" stroke="#171717" stroke-width="2.785" stroke-linecap="round" stroke-linejoin="round"/>
<path d="M133.514 608.747C118.944 598.726 106.091 586.414 95.4531 572.287" stroke="#171717" stroke-width="2.785" stroke-linecap="round" stroke-linejoin="round"/>
<path d="M118.912 533.4C126.51 538.383 134.978 541.888 143.874 543.733" stroke="#171717" stroke-width="2.785" stroke-linecap="round" stroke-linejoin="round"/>
<path d="M260.279 568.238C274.09 575.171 287.329 583.19 299.869 592.22" stroke="#171717" stroke-width="2.785" stroke-linecap="round" stroke-linejoin="round"/>
<path d="M723.765 687.914C764.511 628.827 798.11 565.117 823.856 498.119" stroke="url(#paint17_linear_46_7745)" stroke-width="2.785" stroke-linecap="round" stroke-linejoin="round"/>
<path d="M793.744 565.384C793.595 554.478 792.341 543.616 790 532.963" stroke="url(#paint18_linear_46_7745)" stroke-width="2.785" stroke-linecap="round" stroke-linejoin="round"/>
<path d="M794.778 566.339C802.078 561.008 810.487 557.395 819.378 555.77" stroke="url(#paint19_linear_46_7745)" stroke-width="2.785" stroke-linecap="round" stroke-linejoin="round"/>
<path d="M756.467 636.136C755.897 624.515 754.611 610.694 754.041 599.073" stroke="url(#paint20_linear_46_7745)" stroke-width="2.785" stroke-linecap="round" stroke-linejoin="round"/>
<path d="M756.467 636.136L791.988 620.509" stroke="url(#paint21_linear_46_7745)" stroke-width="2.785" stroke-linecap="round" stroke-linejoin="round"/>
<path d="M141.094 289.982C138.627 288.8 135.514 290.001 133.804 292.137C132.094 294.273 131.532 297.105 131.362 299.837C130.684 310.737 135.347 321.151 139.405 331.288C143.463 341.425 147.046 352.559 144.181 363.094C142.447 369.472 138.444 375.053 133.654 379.608C128.864 384.163 123.284 387.791 117.71 391.343" stroke="url(#paint22_linear_46_7745)" stroke-width="2.785" stroke-linecap="round" stroke-linejoin="round"/>
<g opacity="0.1">
<path d="M752.669 395.537C744.779 399.72 737.93 405.757 730.405 410.481C726.447 413.089 722.718 416.029 719.259 419.268C715.766 422.447 712.148 425.34 709.097 428.961C697.061 443.452 686.826 459.348 678.616 476.301C676.191 481.227 677.288 487.301 682.265 490.218C686.742 492.836 693.755 491.518 696.181 486.569C704.09 470.753 713.464 455.713 724.181 441.646C729.346 434.741 734.232 427.367 738.97 420.161C741.504 416.307 743.66 412.816 746.955 409.479C750.037 406.359 753.088 403.1 755.902 399.733C756.342 399.269 756.602 398.663 756.634 398.024C756.667 397.385 756.47 396.755 756.079 396.248C755.689 395.742 755.13 395.391 754.504 395.26C753.877 395.129 753.225 395.226 752.664 395.533L752.669 395.537Z" fill="#171717"/>
</g>
<g opacity="0.1">
<path d="M73.9402 549.93C73.2401 558.847 73.5064 567.813 74.7341 576.673C75.9341 585.881 76.7801 595.466 79.9221 604.246C86.3301 622.146 97.2631 638.345 109.893 652.42C113.699 656.661 120.935 656.294 124.809 652.42C129.036 648.193 128.609 641.77 124.809 637.505C113.635 624.968 105.44 610.704 97.9641 595.756C94.3171 588.467 90.1441 581.857 87.4071 574.146C84.5933 565.923 82.2492 557.546 80.3861 549.058C79.4981 545.24 74.2522 546.438 73.9402 549.93V549.93Z" fill="#171717"/>
</g>
<g opacity="0.1">
<path d="M270.3 742.469C277.927 743.539 284.783 747.018 292.321 747.913C303 749.181 303.565 730.631 292.321 730.849C288.646 730.92 285.606 732.1 282.09 732.834C278.579 733.537 275.016 733.949 271.438 734.065C266.89 734.25 265.301 741.765 270.3 742.465V742.469Z" fill="#171717"/>
</g>
<g opacity="0.1">
<path d="M101.986 522.2C101.96 523.531 101.451 524.589 101.617 526.007C102.017 528.155 102.875 530.192 104.134 531.978C106.377 535.686 109.18 538.84 111.793 542.264C114.346 545.61 116.281 548.948 119.593 551.695C123.304 554.669 127.351 557.198 131.65 559.231C142.285 564.462 149.132 548.719 138.007 544.152C134.922 542.784 131.94 541.193 129.087 539.39C126.115 537.627 122.511 536.325 119.746 534.31C116.935 532.261 114.464 528.992 112.346 526.292C111.549 525.103 110.681 523.964 109.746 522.879C108.358 521.494 106.823 521.327 105.298 520.298C104.963 520.108 104.584 520.009 104.198 520.01C103.813 520.011 103.434 520.112 103.1 520.304C102.765 520.496 102.486 520.771 102.291 521.103C102.095 521.435 101.989 521.813 101.983 522.198L101.986 522.2Z" fill="#171717"/>
</g>
<g opacity="0.1">
<path d="M268.573 612.964C273.173 616.678 277.95 620.521 282.235 624.614C286.69 628.868 290.079 633.753 294.069 638.386C300.345 645.675 310.994 636.386 306.879 628.502C300.528 616.334 287.657 606.37 274.917 602.066C268.972 600.058 263.475 608.851 268.573 612.966V612.964Z" fill="#171717"/>
</g>
</g>
</g>
<defs>
<linearGradient id="paint0_linear_46_7745" x1="723.402" y1="395.929" x2="721.988" y2="621.604" gradientUnits="userSpaceOnUse">
<stop stop-color="#B7B7B7"/>
<stop offset="1" stop-color="#6F6F6F"/>
</linearGradient>
<linearGradient id="paint1_linear_46_7745" x1="634.76" y1="635.784" x2="634.576" y2="709.994" gradientUnits="userSpaceOnUse">
<stop stop-color="#B7B7B7"/>
<stop offset="1" stop-color="#6F6F6F"/>
</linearGradient>
<linearGradient id="paint2_linear_46_7745" x1="242.818" y1="735.536" x2="242.749" y2="777.333" gradientUnits="userSpaceOnUse">
<stop stop-color="#B7B7B7"/>
<stop offset="1" stop-color="#6F6F6F"/>
</linearGradient>
<linearGradient id="paint3_linear_46_7745" x1="130.801" y1="716.591" x2="130.682" y2="769.448" gradientUnits="userSpaceOnUse">
<stop stop-color="#B7B7B7"/>
<stop offset="1" stop-color="#6F6F6F"/>
</linearGradient>
<linearGradient id="paint4_linear_46_7745" x1="861.502" y1="578.633" x2="860.897" y2="641.562" gradientUnits="userSpaceOnUse">
<stop stop-color="#B7B7B7"/>
<stop offset="1" stop-color="#6F6F6F"/>
</linearGradient>
<linearGradient id="paint5_linear_46_7745" x1="889.431" y1="620.553" x2="889.408" y2="643.78" gradientUnits="userSpaceOnUse">
<stop stop-color="#B7B7B7"/>
<stop offset="1" stop-color="#6F6F6F"/>
</linearGradient>
<linearGradient id="paint6_linear_46_7745" x1="632.916" y1="626.738" x2="632.675" y2="722.388" gradientUnits="userSpaceOnUse">
<stop stop-color="#B7B7B7"/>
<stop offset="1" stop-color="#6F6F6F"/>
</linearGradient>
<linearGradient id="paint7_linear_46_7745" x1="280.912" y1="612.773" x2="279.981" y2="747.152" gradientUnits="userSpaceOnUse">
<stop stop-color="#B7B7B7"/>
<stop offset="1" stop-color="#6F6F6F"/>
</linearGradient>
<linearGradient id="paint8_linear_46_7745" x1="182.986" y1="393.896" x2="182.929" y2="424.117" gradientUnits="userSpaceOnUse">
<stop stop-color="#B7B7B7"/>
<stop offset="1" stop-color="#6F6F6F"/>
</linearGradient>
<linearGradient id="paint9_linear_46_7745" x1="108.792" y1="547.586" x2="108.337" y2="657.102" gradientUnits="userSpaceOnUse">
<stop stop-color="#B7B7B7"/>
<stop offset="1" stop-color="#6F6F6F"/>
</linearGradient>
<linearGradient id="paint10_linear_46_7745" x1="795.172" y1="245.637" x2="795.073" y2="282.109" gradientUnits="userSpaceOnUse">
<stop stop-color="#B7B7B7"/>
<stop offset="1" stop-color="#6F6F6F"/>
</linearGradient>
<linearGradient id="paint11_linear_46_7745" x1="329.594" y1="176.685" x2="329.51" y2="196.36" gradientUnits="userSpaceOnUse">
<stop stop-color="#B7B7B7"/>
<stop offset="1" stop-color="#6F6F6F"/>
</linearGradient>
<linearGradient id="paint12_linear_46_7745" x1="328.084" y1="176.538" x2="328.024" y2="196.142" gradientUnits="userSpaceOnUse">
<stop stop-color="#B7B7B7"/>
<stop offset="1" stop-color="#6F6F6F"/>
</linearGradient>
<linearGradient id="paint13_linear_46_7745" x1="81.5705" y1="474.979" x2="81.5333" y2="491.722" gradientUnits="userSpaceOnUse">
<stop stop-color="#B7B7B7"/>
<stop offset="1" stop-color="#6F6F6F"/>
</linearGradient>
<linearGradient id="paint14_linear_46_7745" x1="81.0156" y1="472.136" x2="80.9004" y2="494.445" gradientUnits="userSpaceOnUse">
<stop stop-color="#B7B7B7"/>
<stop offset="1" stop-color="#6F6F6F"/>
</linearGradient>
<linearGradient id="paint15_linear_46_7745" x1="881.505" y1="421.559" x2="881.411" y2="442.807" gradientUnits="userSpaceOnUse">
<stop stop-color="#B7B7B7"/>
<stop offset="1" stop-color="#6F6F6F"/>
</linearGradient>
<linearGradient id="paint16_linear_46_7745" x1="881.117" y1="428.151" x2="881.085" y2="441.153" gradientUnits="userSpaceOnUse">
<stop stop-color="#B7B7B7"/>
<stop offset="1" stop-color="#6F6F6F"/>
</linearGradient>
<linearGradient id="paint17_linear_46_7745" x1="773.81" y1="498.119" x2="772.884" y2="686.876" gradientUnits="userSpaceOnUse">
<stop stop-color="#B7B7B7"/>
<stop offset="1" stop-color="#6F6F6F"/>
</linearGradient>
<linearGradient id="paint18_linear_46_7745" x1="791.872" y1="532.963" x2="791.15" y2="565.191" gradientUnits="userSpaceOnUse">
<stop stop-color="#B7B7B7"/>
<stop offset="1" stop-color="#6F6F6F"/>
</linearGradient>
<linearGradient id="paint19_linear_46_7745" x1="807.078" y1="555.77" x2="807.067" y2="566.281" gradientUnits="userSpaceOnUse">
<stop stop-color="#B7B7B7"/>
<stop offset="1" stop-color="#6F6F6F"/>
</linearGradient>
<linearGradient id="paint20_linear_46_7745" x1="755.254" y1="599.073" x2="753.798" y2="635.877" gradientUnits="userSpaceOnUse">
<stop stop-color="#B7B7B7"/>
<stop offset="1" stop-color="#6F6F6F"/>
</linearGradient>
<linearGradient id="paint21_linear_46_7745" x1="774.227" y1="620.509" x2="774.21" y2="636.051" gradientUnits="userSpaceOnUse">
<stop stop-color="#B7B7B7"/>
<stop offset="1" stop-color="#6F6F6F"/>
</linearGradient>
<linearGradient id="paint22_linear_46_7745" x1="131.462" y1="289.518" x2="130.492" y2="390.78" gradientUnits="userSpaceOnUse">
<stop stop-color="#B7B7B7"/>
<stop offset="1" stop-color="#6F6F6F"/>
</linearGradient>
<clipPath id="clip0_46_7745">
<rect width="960" height="960" fill="white"/>
</clipPath>
<clipPath id="clip1_46_7745">
<rect width="882" height="611" fill="white" transform="translate(39 175)"/>
</clipPath>
</defs>
</svg>
